<svg width="160" height="45" viewBox="0 0 160 45" fill="none" xmlns="http://www.w3.org/2000/svg">
<g clip-path="url(#clip0_1_248)">
<path d="M1.82812 6.8053C2.55565 6.48697 3.40274 6.62905 3.98633 7.1676L10.4336 13.1207C11.2449 13.87 11.295 15.1354 10.5459 15.9469C9.79655 16.7581 8.53115 16.8084 7.71973 16.0592L4.62988 13.2057V32.5778L8.37793 28.8278L14.374 22.2203L13.54 21.3864L11.9785 22.9489C11.1975 23.7296 9.9314 23.7297 9.15039 22.9489C8.36943 22.1679 8.36956 20.9018 9.15039 20.1207L12.126 17.1442C12.9069 16.3633 14.173 16.3634 14.9541 17.1442C15.0392 17.2293 15.1141 17.3212 15.1807 17.4166C15.2749 17.4827 15.366 17.5561 15.4502 17.6403L18.5498 20.7399C19.304 21.4943 19.333 22.7086 18.6162 23.4987L11.3018 31.5592C11.2803 31.5829 11.2579 31.6059 11.2354 31.6285L4.04395 38.8219C3.47199 39.3937 2.6115 39.565 1.86426 39.2555C1.11712 38.946 0.630056 38.2165 0.629883 37.4078V8.63733C0.629972 7.84298 1.10043 7.12385 1.82812 6.8053Z" fill="url(#paint0_linear_1_248)"/>
<path d="M47.256 36.36C45.504 36.36 43.86 36.036 42.324 35.388C40.812 34.716 39.48 33.792 38.328 32.616C37.2 31.44 36.312 30.072 35.664 28.512C35.016 26.952 34.692 25.272 34.692 23.472C34.692 21.672 35.016 20.004 35.664 18.468C36.312 16.908 37.212 15.54 38.364 14.364C39.516 13.188 40.86 12.276 42.396 11.628C43.956 10.98 45.648 10.656 47.472 10.656C49.464 10.656 51.3 11.04 52.98 11.808C54.66 12.576 56.064 13.68 57.192 15.12L54.852 17.46C54.06 16.308 53.016 15.432 51.72 14.832C50.424 14.208 49.008 13.896 47.472 13.896C45.648 13.896 44.028 14.304 42.612 15.12C41.22 15.936 40.128 17.064 39.336 18.504C38.568 19.944 38.184 21.6 38.184 23.472C38.184 25.368 38.58 27.036 39.372 28.476C40.164 29.916 41.232 31.044 42.576 31.86C43.92 32.676 45.456 33.084 47.184 33.084C48.936 33.084 50.448 32.748 51.72 32.076C53.016 31.404 54.012 30.42 54.708 29.124C55.404 27.804 55.752 26.196 55.752 24.3L57.804 25.776H47.004V22.68H59.244V23.184C59.244 26.088 58.728 28.524 57.696 30.492C56.688 32.436 55.272 33.9 53.448 34.884C51.648 35.868 49.584 36.36 47.256 36.36ZM63.2197 36V10.296H66.4598V36H63.2197ZM78.0762 36.36C76.6842 36.36 75.4242 36.048 74.2962 35.424C73.1922 34.776 72.3282 33.888 71.7042 32.76C71.0802 31.632 70.7682 30.324 70.7682 28.836V18.9H74.0082V28.692C74.0082 29.628 74.1642 30.444 74.4762 31.14C74.8122 31.812 75.2922 32.328 75.9162 32.688C76.5402 33.048 77.2722 33.228 78.1122 33.228C79.3842 33.228 80.3802 32.832 81.1002 32.04C81.8202 31.224 82.1802 30.108 82.1802 28.692V18.9H85.4202V28.836C85.4202 30.324 85.1082 31.632 84.4842 32.76C83.8602 33.888 82.9962 34.776 81.8922 35.424C80.8122 36.048 79.5402 36.36 78.0762 36.36ZM97.5747 36.36C95.8947 36.36 94.3707 35.964 93.0027 35.172C91.6587 34.38 90.5907 33.312 89.7987 31.968C89.0307 30.6 88.6467 29.088 88.6467 27.432C88.6467 25.752 89.0307 24.24 89.7987 22.896C90.5907 21.552 91.6587 20.496 93.0027 19.728C94.3707 18.936 95.8947 18.54 97.5747 18.54C98.8947 18.54 100.119 18.792 101.247 19.296C102.375 19.776 103.347 20.484 104.163 21.42L102.003 23.58C101.475 22.956 100.827 22.488 100.059 22.176C99.3147 21.84 98.4867 21.672 97.5747 21.672C96.4947 21.672 95.5347 21.924 94.6947 22.428C93.8547 22.908 93.1947 23.58 92.7147 24.444C92.2347 25.308 91.9947 26.304 91.9947 27.432C91.9947 28.56 92.2347 29.556 92.7147 30.42C93.1947 31.284 93.8547 31.968 94.6947 32.472C95.5347 32.976 96.4947 33.228 97.5747 33.228C98.4867 33.228 99.3147 33.072 100.059 32.76C100.827 32.424 101.487 31.944 102.039 31.32L104.163 33.48C103.371 34.392 102.399 35.1 101.247 35.604C100.119 36.108 98.8947 36.36 97.5747 36.36ZM114.836 36.36C113.156 36.36 111.644 35.964 110.3 35.172C108.956 34.38 107.888 33.312 107.096 31.968C106.304 30.6 105.908 29.076 105.908 27.396C105.908 25.74 106.304 24.252 107.096 22.932C107.888 21.588 108.956 20.52 110.3 19.728C111.644 18.936 113.156 18.54 114.836 18.54C116.492 18.54 117.992 18.936 119.336 19.728C120.704 20.496 121.784 21.552 122.576 22.896C123.368 24.24 123.764 25.74 123.764 27.396C123.764 29.076 123.368 30.6 122.576 31.968C121.784 33.312 120.704 34.38 119.336 35.172C117.992 35.964 116.492 36.36 114.836 36.36ZM114.836 33.228C115.916 33.228 116.876 32.976 117.716 32.472C118.556 31.968 119.216 31.284 119.696 30.42C120.176 29.532 120.416 28.524 120.416 27.396C120.416 26.292 120.164 25.308 119.66 24.444C119.18 23.58 118.52 22.908 117.68 22.428C116.864 21.924 115.916 21.672 114.836 21.672C113.756 21.672 112.796 21.924 111.956 22.428C111.116 22.908 110.456 23.58 109.976 24.444C109.496 25.308 109.256 26.292 109.256 27.396C109.256 28.524 109.496 29.532 109.976 30.42C110.456 31.284 111.116 31.968 111.956 32.472C112.796 32.976 113.756 33.228 114.836 33.228ZM132.851 36.36C131.891 36.36 130.979 36.24 130.115 36C129.275 35.736 128.495 35.376 127.775 34.92C127.055 34.44 126.431 33.876 125.903 33.228L127.991 31.14C128.615 31.908 129.335 32.484 130.151 32.868C130.967 33.228 131.879 33.408 132.887 33.408C133.895 33.408 134.675 33.24 135.227 32.904C135.779 32.544 136.055 32.052 136.055 31.428C136.055 30.804 135.827 30.324 135.371 29.988C134.939 29.628 134.375 29.34 133.679 29.124C132.983 28.884 132.239 28.656 131.447 28.44C130.679 28.2 129.947 27.9 129.251 27.54C128.555 27.18 127.979 26.688 127.523 26.064C127.091 25.44 126.875 24.612 126.875 23.58C126.875 22.548 127.127 21.66 127.631 20.916C128.135 20.148 128.831 19.56 129.719 19.152C130.631 18.744 131.723 18.54 132.995 18.54C134.339 18.54 135.527 18.78 136.559 19.26C137.615 19.716 138.479 20.412 139.151 21.348L137.063 23.436C136.583 22.812 135.983 22.332 135.263 21.996C134.567 21.66 133.775 21.492 132.887 21.492C131.951 21.492 131.231 21.66 130.727 21.996C130.247 22.308 130.007 22.752 130.007 23.328C130.007 23.904 130.223 24.348 130.655 24.66C131.087 24.972 131.651 25.236 132.347 25.452C133.067 25.668 133.811 25.896 134.579 26.136C135.347 26.352 136.079 26.652 136.775 27.036C137.471 27.42 138.035 27.936 138.467 28.584C138.923 29.232 139.151 30.084 139.151 31.14C139.151 32.748 138.575 34.02 137.423 34.956C136.295 35.892 134.771 36.36 132.851 36.36ZM150.698 36.36C148.994 36.36 147.458 35.976 146.09 35.208C144.722 34.416 143.642 33.348 142.85 32.004C142.058 30.66 141.662 29.136 141.662 27.432C141.662 25.752 142.046 24.24 142.814 22.896C143.606 21.552 144.662 20.496 145.982 19.728C147.326 18.936 148.826 18.54 150.482 18.54C152.066 18.54 153.458 18.9 154.658 19.62C155.882 20.34 156.83 21.336 157.502 22.608C158.198 23.88 158.546 25.32 158.546 26.928C158.546 27.168 158.534 27.432 158.51 27.72C158.486 27.984 158.438 28.296 158.366 28.656H143.93V25.956H156.638L155.45 27C155.45 25.848 155.246 24.876 154.838 24.084C154.43 23.268 153.854 22.644 153.11 22.212C152.366 21.756 151.466 21.528 150.41 21.528C149.306 21.528 148.334 21.768 147.494 22.248C146.654 22.728 146.006 23.4 145.55 24.264C145.094 25.128 144.866 26.148 144.866 27.324C144.866 28.524 145.106 29.58 145.586 30.492C146.066 31.38 146.75 32.076 147.638 32.58C148.526 33.06 149.546 33.3 150.698 33.3C151.658 33.3 152.534 33.132 153.326 32.796C154.142 32.46 154.838 31.956 155.414 31.284L157.502 33.408C156.686 34.368 155.678 35.1 154.478 35.604C153.302 36.108 152.042 36.36 150.698 36.36Z" fill="#E1D8EE"/>
</g>
<defs>
<linearGradient id="paint0_linear_1_248" x1="25.8689" y1="36.8326" x2="-4.39139" y2="9.63203" gradientUnits="userSpaceOnUse">
<stop stop-color="#FFAB97"/>
<stop offset="0.33" stop-color="#FF6362"/>
<stop offset="0.795" stop-color="#C065B6"/>
<stop offset="1" stop-color="#8C77FF"/>
</linearGradient>
<clipPath id="clip0_1_248">
<rect width="160" height="45" fill="white"/>
</clipPath>
</defs>
</svg>
